<mxfile host="app.diagrams.net" modified="2021-05-30T11:31:25.810Z" agent="5.0 (Windows NT 10.0; Win64; x64) AppleWebKit/537.36 (KHTML, like Gecko) Chrome/90.0.4430.212 Safari/537.36" etag="FtWlYJylAWLJHuo6ld0w" version="14.7.3" type="github">
  <diagram id="YPV3U6656D_M8a14Zf06" name="Page-1">
    <mxGraphModel dx="3207" dy="482" grid="1" gridSize="10" guides="1" tooltips="1" connect="1" arrows="1" fold="1" page="1" pageScale="1" pageWidth="2339" pageHeight="3300" math="0" shadow="0">
      <root>
        <mxCell id="0" />
        <mxCell id="1" parent="0" />
        <mxCell id="ywrFgfz7s8btJCYknNwE-1" value="User" style="rounded=0;whiteSpace=wrap;html=1;" parent="1" vertex="1">
          <mxGeometry x="160" y="140" width="110" height="40" as="geometry" />
        </mxCell>
        <mxCell id="ywrFgfz7s8btJCYknNwE-2" value="Username" style="ellipse;whiteSpace=wrap;html=1;" parent="1" vertex="1">
          <mxGeometry x="240" y="25" width="160" height="50" as="geometry" />
        </mxCell>
        <mxCell id="ywrFgfz7s8btJCYknNwE-3" value="Password" style="ellipse;whiteSpace=wrap;html=1;" parent="1" vertex="1">
          <mxGeometry x="400" y="50" width="160" height="50" as="geometry" />
        </mxCell>
        <mxCell id="ywrFgfz7s8btJCYknNwE-4" value="Date_of_birth" style="ellipse;whiteSpace=wrap;html=1;" parent="1" vertex="1">
          <mxGeometry x="360" y="260" width="160" height="50" as="geometry" />
        </mxCell>
        <mxCell id="ywrFgfz7s8btJCYknNwE-5" value="Last_Name" style="ellipse;whiteSpace=wrap;html=1;" parent="1" vertex="1">
          <mxGeometry x="-310" y="330" width="160" height="50" as="geometry" />
        </mxCell>
        <mxCell id="ywrFgfz7s8btJCYknNwE-6" value="First_Name" style="ellipse;whiteSpace=wrap;html=1;" parent="1" vertex="1">
          <mxGeometry x="-310" y="230" width="160" height="50" as="geometry" />
        </mxCell>
        <mxCell id="ywrFgfz7s8btJCYknNwE-7" value="Name" style="ellipse;whiteSpace=wrap;html=1;" parent="1" vertex="1">
          <mxGeometry x="-110" y="260" width="160" height="50" as="geometry" />
        </mxCell>
        <mxCell id="ywrFgfz7s8btJCYknNwE-8" value="&lt;u&gt;UserId&lt;/u&gt;" style="ellipse;whiteSpace=wrap;html=1;" parent="1" vertex="1">
          <mxGeometry x="50" y="20" width="160" height="50" as="geometry" />
        </mxCell>
        <mxCell id="ywrFgfz7s8btJCYknNwE-9" value="Username" style="ellipse;whiteSpace=wrap;html=1;" parent="1" vertex="1">
          <mxGeometry x="-90" y="70" width="150" height="50" as="geometry" />
        </mxCell>
        <mxCell id="ywrFgfz7s8btJCYknNwE-11" value="Email" style="ellipse;whiteSpace=wrap;html=1;" parent="1" vertex="1">
          <mxGeometry x="-120" y="160" width="160" height="50" as="geometry" />
        </mxCell>
        <mxCell id="ywrFgfz7s8btJCYknNwE-12" value="City" style="ellipse;whiteSpace=wrap;html=1;" parent="1" vertex="1">
          <mxGeometry x="220" y="350" width="160" height="50" as="geometry" />
        </mxCell>
        <mxCell id="ywrFgfz7s8btJCYknNwE-13" value="Street" style="ellipse;whiteSpace=wrap;html=1;" parent="1" vertex="1">
          <mxGeometry x="10" y="340" width="160" height="50" as="geometry" />
        </mxCell>
        <mxCell id="ywrFgfz7s8btJCYknNwE-14" value="Address" style="ellipse;whiteSpace=wrap;html=1;" parent="1" vertex="1">
          <mxGeometry x="100" y="250" width="160" height="50" as="geometry" />
        </mxCell>
        <mxCell id="ywrFgfz7s8btJCYknNwE-10" value="Mobile" style="ellipse;whiteSpace=wrap;html=1;" parent="1" vertex="1">
          <mxGeometry x="-80" y="75" width="130" height="40" as="geometry" />
        </mxCell>
        <mxCell id="ywrFgfz7s8btJCYknNwE-15" value="" style="endArrow=none;html=1;exitX=0.609;exitY=-0.075;exitDx=0;exitDy=0;exitPerimeter=0;" parent="1" source="ywrFgfz7s8btJCYknNwE-1" target="ywrFgfz7s8btJCYknNwE-2" edge="1">
          <mxGeometry width="50" height="50" relative="1" as="geometry">
            <mxPoint x="220" y="210" as="sourcePoint" />
            <mxPoint x="270" y="160" as="targetPoint" />
          </mxGeometry>
        </mxCell>
        <mxCell id="ywrFgfz7s8btJCYknNwE-16" value="" style="endArrow=none;html=1;exitX=1;exitY=0;exitDx=0;exitDy=0;entryX=0.088;entryY=0.84;entryDx=0;entryDy=0;entryPerimeter=0;" parent="1" source="ywrFgfz7s8btJCYknNwE-1" target="ywrFgfz7s8btJCYknNwE-3" edge="1">
          <mxGeometry width="50" height="50" relative="1" as="geometry">
            <mxPoint x="236.98999999999978" y="147" as="sourcePoint" />
            <mxPoint x="304.6527247616755" y="83.7119671584328" as="targetPoint" />
          </mxGeometry>
        </mxCell>
        <mxCell id="ywrFgfz7s8btJCYknNwE-17" value="" style="endArrow=none;html=1;exitX=0.382;exitY=0;exitDx=0;exitDy=0;exitPerimeter=0;" parent="1" source="ywrFgfz7s8btJCYknNwE-1" target="ywrFgfz7s8btJCYknNwE-8" edge="1">
          <mxGeometry width="50" height="50" relative="1" as="geometry">
            <mxPoint x="246.98999999999978" y="157" as="sourcePoint" />
            <mxPoint x="314.6527247616755" y="93.7119671584328" as="targetPoint" />
          </mxGeometry>
        </mxCell>
        <mxCell id="ywrFgfz7s8btJCYknNwE-18" value="" style="endArrow=none;html=1;exitX=0;exitY=0;exitDx=0;exitDy=0;entryX=1;entryY=0.5;entryDx=0;entryDy=0;" parent="1" source="ywrFgfz7s8btJCYknNwE-1" target="ywrFgfz7s8btJCYknNwE-9" edge="1">
          <mxGeometry width="50" height="50" relative="1" as="geometry">
            <mxPoint x="256.9899999999998" y="167" as="sourcePoint" />
            <mxPoint x="324.6527247616755" y="103.7119671584328" as="targetPoint" />
          </mxGeometry>
        </mxCell>
        <mxCell id="ywrFgfz7s8btJCYknNwE-19" value="" style="endArrow=none;html=1;exitX=0;exitY=0.5;exitDx=0;exitDy=0;entryX=1;entryY=0.34;entryDx=0;entryDy=0;entryPerimeter=0;" parent="1" source="ywrFgfz7s8btJCYknNwE-1" target="ywrFgfz7s8btJCYknNwE-11" edge="1">
          <mxGeometry width="50" height="50" relative="1" as="geometry">
            <mxPoint x="266.9899999999998" y="177" as="sourcePoint" />
            <mxPoint x="334.6527247616755" y="113.7119671584328" as="targetPoint" />
          </mxGeometry>
        </mxCell>
        <mxCell id="ywrFgfz7s8btJCYknNwE-20" value="" style="endArrow=none;html=1;exitX=0.819;exitY=0.06;exitDx=0;exitDy=0;exitPerimeter=0;entryX=0;entryY=1;entryDx=0;entryDy=0;" parent="1" source="ywrFgfz7s8btJCYknNwE-7" target="ywrFgfz7s8btJCYknNwE-1" edge="1">
          <mxGeometry width="50" height="50" relative="1" as="geometry">
            <mxPoint x="30" y="260" as="sourcePoint" />
            <mxPoint x="344.6527247616755" y="123.7119671584328" as="targetPoint" />
          </mxGeometry>
        </mxCell>
        <mxCell id="ywrFgfz7s8btJCYknNwE-21" value="" style="endArrow=none;html=1;" parent="1" source="ywrFgfz7s8btJCYknNwE-14" target="ywrFgfz7s8btJCYknNwE-1" edge="1">
          <mxGeometry width="50" height="50" relative="1" as="geometry">
            <mxPoint x="286.9899999999998" y="197" as="sourcePoint" />
            <mxPoint x="354.6527247616755" y="133.7119671584328" as="targetPoint" />
          </mxGeometry>
        </mxCell>
        <mxCell id="ywrFgfz7s8btJCYknNwE-22" value="" style="endArrow=none;html=1;exitX=0.031;exitY=0.34;exitDx=0;exitDy=0;exitPerimeter=0;entryX=0.927;entryY=0.975;entryDx=0;entryDy=0;entryPerimeter=0;" parent="1" source="ywrFgfz7s8btJCYknNwE-4" target="ywrFgfz7s8btJCYknNwE-1" edge="1">
          <mxGeometry width="50" height="50" relative="1" as="geometry">
            <mxPoint x="296.9899999999998" y="207" as="sourcePoint" />
            <mxPoint x="364.6527247616755" y="143.7119671584328" as="targetPoint" />
          </mxGeometry>
        </mxCell>
        <mxCell id="ywrFgfz7s8btJCYknNwE-23" value="" style="endArrow=none;html=1;exitX=0.619;exitY=-0.06;exitDx=0;exitDy=0;exitPerimeter=0;entryX=0.213;entryY=0.98;entryDx=0;entryDy=0;entryPerimeter=0;" parent="1" source="ywrFgfz7s8btJCYknNwE-13" target="ywrFgfz7s8btJCYknNwE-14" edge="1">
          <mxGeometry width="50" height="50" relative="1" as="geometry">
            <mxPoint x="306.9899999999998" y="217" as="sourcePoint" />
            <mxPoint x="374.6527247616755" y="153.7119671584328" as="targetPoint" />
          </mxGeometry>
        </mxCell>
        <mxCell id="ywrFgfz7s8btJCYknNwE-24" value="" style="endArrow=none;html=1;exitX=0.938;exitY=0.8;exitDx=0;exitDy=0;entryX=0.419;entryY=0;entryDx=0;entryDy=0;entryPerimeter=0;exitPerimeter=0;" parent="1" source="ywrFgfz7s8btJCYknNwE-14" target="ywrFgfz7s8btJCYknNwE-12" edge="1">
          <mxGeometry width="50" height="50" relative="1" as="geometry">
            <mxPoint x="316.9899999999998" y="227" as="sourcePoint" />
            <mxPoint x="384.6527247616755" y="163.7119671584328" as="targetPoint" />
          </mxGeometry>
        </mxCell>
        <mxCell id="ywrFgfz7s8btJCYknNwE-25" value="" style="endArrow=none;html=1;exitX=1;exitY=0.5;exitDx=0;exitDy=0;entryX=0;entryY=0.5;entryDx=0;entryDy=0;" parent="1" source="ywrFgfz7s8btJCYknNwE-6" target="ywrFgfz7s8btJCYknNwE-7" edge="1">
          <mxGeometry width="50" height="50" relative="1" as="geometry">
            <mxPoint x="326.9899999999998" y="237" as="sourcePoint" />
            <mxPoint x="394.6527247616755" y="173.7119671584328" as="targetPoint" />
          </mxGeometry>
        </mxCell>
        <mxCell id="ywrFgfz7s8btJCYknNwE-26" value="" style="endArrow=none;html=1;exitX=0.981;exitY=0.34;exitDx=0;exitDy=0;exitPerimeter=0;entryX=0;entryY=1;entryDx=0;entryDy=0;" parent="1" source="ywrFgfz7s8btJCYknNwE-5" target="ywrFgfz7s8btJCYknNwE-7" edge="1">
          <mxGeometry width="50" height="50" relative="1" as="geometry">
            <mxPoint x="336.9899999999998" y="247" as="sourcePoint" />
            <mxPoint x="404.6527247616755" y="183.7119671584328" as="targetPoint" />
          </mxGeometry>
        </mxCell>
        <mxCell id="ywrFgfz7s8btJCYknNwE-27" value="ISA" style="triangle;whiteSpace=wrap;html=1;rotation=-170;" parent="1" vertex="1">
          <mxGeometry x="590" y="140" width="41.35" height="72.8" as="geometry" />
        </mxCell>
        <mxCell id="ywrFgfz7s8btJCYknNwE-28" value="" style="endArrow=none;html=1;entryX=1;entryY=0.5;entryDx=0;entryDy=0;exitX=1;exitY=0.5;exitDx=0;exitDy=0;" parent="1" source="ywrFgfz7s8btJCYknNwE-27" target="ywrFgfz7s8btJCYknNwE-1" edge="1">
          <mxGeometry width="50" height="50" relative="1" as="geometry">
            <mxPoint x="220" y="270" as="sourcePoint" />
            <mxPoint x="270" y="220" as="targetPoint" />
          </mxGeometry>
        </mxCell>
        <mxCell id="ywrFgfz7s8btJCYknNwE-30" value="Customer" style="rounded=0;whiteSpace=wrap;html=1;" parent="1" vertex="1">
          <mxGeometry x="560" y="430" width="110" height="40" as="geometry" />
        </mxCell>
        <mxCell id="ywrFgfz7s8btJCYknNwE-31" value="Gender" style="ellipse;whiteSpace=wrap;html=1;" parent="1" vertex="1">
          <mxGeometry x="330" y="530" width="160" height="50" as="geometry" />
        </mxCell>
        <mxCell id="ywrFgfz7s8btJCYknNwE-33" value="&lt;u&gt;CId&lt;/u&gt;" style="ellipse;whiteSpace=wrap;html=1;" parent="1" vertex="1">
          <mxGeometry x="340" y="420" width="160" height="50" as="geometry" />
        </mxCell>
        <mxCell id="ywrFgfz7s8btJCYknNwE-34" value="" style="endArrow=none;html=1;entryX=0;entryY=0.25;entryDx=0;entryDy=0;exitX=0.988;exitY=0.34;exitDx=0;exitDy=0;exitPerimeter=0;" parent="1" source="ywrFgfz7s8btJCYknNwE-33" target="ywrFgfz7s8btJCYknNwE-30" edge="1">
          <mxGeometry width="50" height="50" relative="1" as="geometry">
            <mxPoint x="220" y="450" as="sourcePoint" />
            <mxPoint x="270" y="400" as="targetPoint" />
          </mxGeometry>
        </mxCell>
        <mxCell id="ywrFgfz7s8btJCYknNwE-36" value="" style="endArrow=none;html=1;entryX=0;entryY=1;entryDx=0;entryDy=0;" parent="1" source="ywrFgfz7s8btJCYknNwE-31" target="ywrFgfz7s8btJCYknNwE-30" edge="1">
          <mxGeometry width="50" height="50" relative="1" as="geometry">
            <mxPoint x="220" y="450" as="sourcePoint" />
            <mxPoint x="270" y="400" as="targetPoint" />
          </mxGeometry>
        </mxCell>
        <mxCell id="ywrFgfz7s8btJCYknNwE-37" value="Room Reservation" style="rounded=0;whiteSpace=wrap;html=1;" parent="1" vertex="1">
          <mxGeometry x="190" y="820" width="140" height="40" as="geometry" />
        </mxCell>
        <mxCell id="ywrFgfz7s8btJCYknNwE-38" value="book" style="rhombus;whiteSpace=wrap;html=1;direction=south;rotation=50;" parent="1" vertex="1">
          <mxGeometry x="425" y="630" width="60" height="70" as="geometry" />
        </mxCell>
        <mxCell id="ywrFgfz7s8btJCYknNwE-39" value="" style="endArrow=none;html=1;entryX=1;entryY=0.5;entryDx=0;entryDy=0;exitX=0.75;exitY=0;exitDx=0;exitDy=0;" parent="1" source="ywrFgfz7s8btJCYknNwE-37" target="ywrFgfz7s8btJCYknNwE-38" edge="1">
          <mxGeometry width="50" height="50" relative="1" as="geometry">
            <mxPoint x="220" y="660" as="sourcePoint" />
            <mxPoint x="270" y="610" as="targetPoint" />
          </mxGeometry>
        </mxCell>
        <mxCell id="ywrFgfz7s8btJCYknNwE-40" value="" style="endArrow=none;html=1;exitX=0;exitY=0.5;exitDx=0;exitDy=0;entryX=0.406;entryY=1.158;entryDx=0;entryDy=0;entryPerimeter=0;" parent="1" source="ywrFgfz7s8btJCYknNwE-38" target="ywrFgfz7s8btJCYknNwE-30" edge="1">
          <mxGeometry width="50" height="50" relative="1" as="geometry">
            <mxPoint x="220" y="660" as="sourcePoint" />
            <mxPoint x="270" y="610" as="targetPoint" />
          </mxGeometry>
        </mxCell>
        <mxCell id="ywrFgfz7s8btJCYknNwE-41" value="&lt;u&gt;ReservationID&lt;/u&gt;" style="ellipse;whiteSpace=wrap;html=1;" parent="1" vertex="1">
          <mxGeometry x="150" y="680" width="160" height="50" as="geometry" />
        </mxCell>
        <mxCell id="ywrFgfz7s8btJCYknNwE-42" value="No_Of_Children" style="ellipse;whiteSpace=wrap;html=1;" parent="1" vertex="1">
          <mxGeometry x="-20" y="690" width="160" height="50" as="geometry" />
        </mxCell>
        <mxCell id="ywrFgfz7s8btJCYknNwE-43" value="No_Of_Rooms" style="ellipse;whiteSpace=wrap;html=1;" parent="1" vertex="1">
          <mxGeometry x="-30" y="840" width="160" height="50" as="geometry" />
        </mxCell>
        <mxCell id="ywrFgfz7s8btJCYknNwE-44" value="Price" style="ellipse;whiteSpace=wrap;html=1;" parent="1" vertex="1">
          <mxGeometry x="110" y="950" width="160" height="50" as="geometry" />
        </mxCell>
        <mxCell id="ywrFgfz7s8btJCYknNwE-45" value="Check_Out_Date" style="ellipse;whiteSpace=wrap;html=1;" parent="1" vertex="1">
          <mxGeometry x="370" y="940" width="160" height="50" as="geometry" />
        </mxCell>
        <mxCell id="ywrFgfz7s8btJCYknNwE-46" value="Check_In_Date" style="ellipse;whiteSpace=wrap;html=1;" parent="1" vertex="1">
          <mxGeometry x="440" y="880" width="160" height="50" as="geometry" />
        </mxCell>
        <mxCell id="ywrFgfz7s8btJCYknNwE-47" value="No_Of_Children" style="ellipse;whiteSpace=wrap;html=1;" parent="1" vertex="1">
          <mxGeometry x="440" y="790" width="160" height="50" as="geometry" />
        </mxCell>
        <mxCell id="ywrFgfz7s8btJCYknNwE-48" value="No_Of_Adults" style="ellipse;whiteSpace=wrap;html=1;" parent="1" vertex="1">
          <mxGeometry x="20" y="900" width="160" height="50" as="geometry" />
        </mxCell>
        <mxCell id="ywrFgfz7s8btJCYknNwE-49" value="" style="endArrow=none;html=1;exitX=0.638;exitY=1.04;exitDx=0;exitDy=0;exitPerimeter=0;entryX=0.336;entryY=0.025;entryDx=0;entryDy=0;entryPerimeter=0;" parent="1" source="ywrFgfz7s8btJCYknNwE-41" target="ywrFgfz7s8btJCYknNwE-37" edge="1">
          <mxGeometry width="50" height="50" relative="1" as="geometry">
            <mxPoint x="220" y="900" as="sourcePoint" />
            <mxPoint x="270" y="850" as="targetPoint" />
          </mxGeometry>
        </mxCell>
        <mxCell id="ywrFgfz7s8btJCYknNwE-50" value="" style="endArrow=none;html=1;entryX=0;entryY=0;entryDx=0;entryDy=0;exitX=0.938;exitY=0.84;exitDx=0;exitDy=0;exitPerimeter=0;" parent="1" source="ywrFgfz7s8btJCYknNwE-42" target="ywrFgfz7s8btJCYknNwE-37" edge="1">
          <mxGeometry width="50" height="50" relative="1" as="geometry">
            <mxPoint x="130" y="720" as="sourcePoint" />
            <mxPoint x="247.03999999999996" y="831" as="targetPoint" />
          </mxGeometry>
        </mxCell>
        <mxCell id="ywrFgfz7s8btJCYknNwE-51" value="" style="endArrow=none;html=1;exitX=1;exitY=0.5;exitDx=0;exitDy=0;" parent="1" source="ywrFgfz7s8btJCYknNwE-43" edge="1">
          <mxGeometry width="50" height="50" relative="1" as="geometry">
            <mxPoint x="212.07999999999993" y="772" as="sourcePoint" />
            <mxPoint x="190" y="835" as="targetPoint" />
          </mxGeometry>
        </mxCell>
        <mxCell id="ywrFgfz7s8btJCYknNwE-52" value="" style="endArrow=none;html=1;exitX=1;exitY=0.5;exitDx=0;exitDy=0;entryX=0.25;entryY=1;entryDx=0;entryDy=0;" parent="1" source="ywrFgfz7s8btJCYknNwE-48" target="ywrFgfz7s8btJCYknNwE-37" edge="1">
          <mxGeometry width="50" height="50" relative="1" as="geometry">
            <mxPoint x="222.07999999999993" y="782" as="sourcePoint" />
            <mxPoint x="267.03999999999996" y="851" as="targetPoint" />
          </mxGeometry>
        </mxCell>
        <mxCell id="ywrFgfz7s8btJCYknNwE-53" value="" style="endArrow=none;html=1;exitX=0.4;exitY=0.975;exitDx=0;exitDy=0;exitPerimeter=0;entryX=0.813;entryY=0.12;entryDx=0;entryDy=0;entryPerimeter=0;" parent="1" source="ywrFgfz7s8btJCYknNwE-37" target="ywrFgfz7s8btJCYknNwE-44" edge="1">
          <mxGeometry width="50" height="50" relative="1" as="geometry">
            <mxPoint x="232.07999999999993" y="792" as="sourcePoint" />
            <mxPoint x="277.03999999999996" y="861" as="targetPoint" />
          </mxGeometry>
        </mxCell>
        <mxCell id="ywrFgfz7s8btJCYknNwE-54" value="" style="endArrow=none;html=1;exitX=0.621;exitY=1;exitDx=0;exitDy=0;exitPerimeter=0;" parent="1" source="ywrFgfz7s8btJCYknNwE-37" target="ywrFgfz7s8btJCYknNwE-45" edge="1">
          <mxGeometry width="50" height="50" relative="1" as="geometry">
            <mxPoint x="242.07999999999993" y="802" as="sourcePoint" />
            <mxPoint x="287.03999999999996" y="871" as="targetPoint" />
          </mxGeometry>
        </mxCell>
        <mxCell id="ywrFgfz7s8btJCYknNwE-55" value="" style="endArrow=none;html=1;exitX=1;exitY=0.75;exitDx=0;exitDy=0;entryX=0;entryY=0.38;entryDx=0;entryDy=0;entryPerimeter=0;" parent="1" source="ywrFgfz7s8btJCYknNwE-37" target="ywrFgfz7s8btJCYknNwE-46" edge="1">
          <mxGeometry width="50" height="50" relative="1" as="geometry">
            <mxPoint x="252.07999999999993" y="812" as="sourcePoint" />
            <mxPoint x="297.03999999999996" y="881" as="targetPoint" />
          </mxGeometry>
        </mxCell>
        <mxCell id="ywrFgfz7s8btJCYknNwE-56" value="" style="endArrow=none;html=1;exitX=1;exitY=0.5;exitDx=0;exitDy=0;entryX=0.013;entryY=0.7;entryDx=0;entryDy=0;entryPerimeter=0;" parent="1" source="ywrFgfz7s8btJCYknNwE-37" target="ywrFgfz7s8btJCYknNwE-47" edge="1">
          <mxGeometry width="50" height="50" relative="1" as="geometry">
            <mxPoint x="262.0799999999999" y="822" as="sourcePoint" />
            <mxPoint x="307.03999999999996" y="891" as="targetPoint" />
          </mxGeometry>
        </mxCell>
        <mxCell id="ywrFgfz7s8btJCYknNwE-57" value="Menu" style="rounded=0;whiteSpace=wrap;html=1;" parent="1" vertex="1">
          <mxGeometry x="430" y="1120" width="140" height="40" as="geometry" />
        </mxCell>
        <mxCell id="ywrFgfz7s8btJCYknNwE-58" value="Mname" style="ellipse;whiteSpace=wrap;html=1;" parent="1" vertex="1">
          <mxGeometry x="670" y="1190" width="160" height="50" as="geometry" />
        </mxCell>
        <mxCell id="ywrFgfz7s8btJCYknNwE-59" value="Price" style="ellipse;whiteSpace=wrap;html=1;" parent="1" vertex="1">
          <mxGeometry x="280" y="1230" width="160" height="50" as="geometry" />
        </mxCell>
        <mxCell id="ywrFgfz7s8btJCYknNwE-60" value="Description" style="ellipse;whiteSpace=wrap;html=1;" parent="1" vertex="1">
          <mxGeometry x="190" y="1160" width="160" height="50" as="geometry" />
        </mxCell>
        <mxCell id="ywrFgfz7s8btJCYknNwE-61" value="&lt;u&gt;Mid&lt;/u&gt;" style="ellipse;whiteSpace=wrap;html=1;" parent="1" vertex="1">
          <mxGeometry x="190" y="1080" width="160" height="50" as="geometry" />
        </mxCell>
        <mxCell id="ywrFgfz7s8btJCYknNwE-62" value="Type" style="ellipse;whiteSpace=wrap;html=1;" parent="1" vertex="1">
          <mxGeometry x="600" y="1080" width="160" height="50" as="geometry" />
        </mxCell>
        <mxCell id="ywrFgfz7s8btJCYknNwE-63" value="Offer" style="ellipse;whiteSpace=wrap;html=1;" parent="1" vertex="1">
          <mxGeometry x="400" y="1280" width="160" height="50" as="geometry" />
        </mxCell>
        <mxCell id="ywrFgfz7s8btJCYknNwE-64" value="" style="endArrow=none;html=1;entryX=0;entryY=0.5;entryDx=0;entryDy=0;exitX=1.006;exitY=0.64;exitDx=0;exitDy=0;exitPerimeter=0;" parent="1" source="ywrFgfz7s8btJCYknNwE-61" target="ywrFgfz7s8btJCYknNwE-57" edge="1">
          <mxGeometry width="50" height="50" relative="1" as="geometry">
            <mxPoint x="220" y="1200" as="sourcePoint" />
            <mxPoint x="270" y="1150" as="targetPoint" />
          </mxGeometry>
        </mxCell>
        <mxCell id="ywrFgfz7s8btJCYknNwE-65" value="" style="endArrow=none;html=1;entryX=0;entryY=1;entryDx=0;entryDy=0;exitX=1.013;exitY=0.38;exitDx=0;exitDy=0;exitPerimeter=0;" parent="1" source="ywrFgfz7s8btJCYknNwE-60" target="ywrFgfz7s8btJCYknNwE-57" edge="1">
          <mxGeometry width="50" height="50" relative="1" as="geometry">
            <mxPoint x="220" y="1200" as="sourcePoint" />
            <mxPoint x="270" y="1150" as="targetPoint" />
          </mxGeometry>
        </mxCell>
        <mxCell id="ywrFgfz7s8btJCYknNwE-67" value="" style="endArrow=none;html=1;exitX=0.769;exitY=0.1;exitDx=0;exitDy=0;exitPerimeter=0;" parent="1" source="ywrFgfz7s8btJCYknNwE-59" target="ywrFgfz7s8btJCYknNwE-57" edge="1">
          <mxGeometry width="50" height="50" relative="1" as="geometry">
            <mxPoint x="220" y="1200" as="sourcePoint" />
            <mxPoint x="270" y="1150" as="targetPoint" />
          </mxGeometry>
        </mxCell>
        <mxCell id="ywrFgfz7s8btJCYknNwE-70" value="" style="endArrow=none;html=1;entryX=0.5;entryY=1;entryDx=0;entryDy=0;" parent="1" target="ywrFgfz7s8btJCYknNwE-57" edge="1">
          <mxGeometry width="50" height="50" relative="1" as="geometry">
            <mxPoint x="490" y="1280" as="sourcePoint" />
            <mxPoint x="270" y="1150" as="targetPoint" />
          </mxGeometry>
        </mxCell>
        <mxCell id="ywrFgfz7s8btJCYknNwE-71" value="" style="endArrow=none;html=1;entryX=1;entryY=0;entryDx=0;entryDy=0;exitX=0;exitY=0.5;exitDx=0;exitDy=0;" parent="1" source="ywrFgfz7s8btJCYknNwE-62" target="ywrFgfz7s8btJCYknNwE-57" edge="1">
          <mxGeometry width="50" height="50" relative="1" as="geometry">
            <mxPoint x="220" y="1200" as="sourcePoint" />
            <mxPoint x="270" y="1150" as="targetPoint" />
          </mxGeometry>
        </mxCell>
        <mxCell id="ywrFgfz7s8btJCYknNwE-72" value="" style="endArrow=none;html=1;entryX=0;entryY=0.5;entryDx=0;entryDy=0;exitX=1;exitY=1;exitDx=0;exitDy=0;" parent="1" source="ywrFgfz7s8btJCYknNwE-57" target="ywrFgfz7s8btJCYknNwE-58" edge="1">
          <mxGeometry width="50" height="50" relative="1" as="geometry">
            <mxPoint x="220" y="1200" as="sourcePoint" />
            <mxPoint x="270" y="1150" as="targetPoint" />
          </mxGeometry>
        </mxCell>
        <mxCell id="ywrFgfz7s8btJCYknNwE-73" value="Order" style="rhombus;whiteSpace=wrap;html=1;rotation=-45;" parent="1" vertex="1">
          <mxGeometry x="310" y="970" width="70" height="70" as="geometry" />
        </mxCell>
        <mxCell id="ywrFgfz7s8btJCYknNwE-74" value="" style="endArrow=none;html=1;exitX=0.429;exitY=0.975;exitDx=0;exitDy=0;entryX=0.5;entryY=0;entryDx=0;entryDy=0;exitPerimeter=0;" parent="1" source="ywrFgfz7s8btJCYknNwE-37" target="ywrFgfz7s8btJCYknNwE-73" edge="1">
          <mxGeometry width="50" height="50" relative="1" as="geometry">
            <mxPoint x="220" y="1110" as="sourcePoint" />
            <mxPoint x="270" y="1060" as="targetPoint" />
          </mxGeometry>
        </mxCell>
        <mxCell id="ywrFgfz7s8btJCYknNwE-75" value="" style="endArrow=none;html=1;entryX=0.5;entryY=1;entryDx=0;entryDy=0;exitX=0.174;exitY=0.05;exitDx=0;exitDy=0;exitPerimeter=0;" parent="1" source="ywrFgfz7s8btJCYknNwE-57" target="ywrFgfz7s8btJCYknNwE-73" edge="1">
          <mxGeometry width="50" height="50" relative="1" as="geometry">
            <mxPoint x="440" y="1110" as="sourcePoint" />
            <mxPoint x="270" y="1060" as="targetPoint" />
          </mxGeometry>
        </mxCell>
        <mxCell id="fcwTPR43N3nKxxFcQhkV-3" value="Event" style="rounded=0;whiteSpace=wrap;html=1;" parent="1" vertex="1">
          <mxGeometry x="1090" y="950" width="140" height="40" as="geometry" />
        </mxCell>
        <mxCell id="5CmYQyaG9mHsX2ngIsFJ-1" value="Room" style="rounded=0;whiteSpace=wrap;html=1;" parent="1" vertex="1">
          <mxGeometry x="-260" y="720" width="140" height="40" as="geometry" />
        </mxCell>
        <mxCell id="fcwTPR43N3nKxxFcQhkV-4" value="NoOfAttendees" style="ellipse;whiteSpace=wrap;html=1;" parent="1" vertex="1">
          <mxGeometry x="1390" y="960" width="160" height="50" as="geometry" />
        </mxCell>
        <mxCell id="5CmYQyaG9mHsX2ngIsFJ-2" value="Description" style="ellipse;whiteSpace=wrap;html=1;" parent="1" vertex="1">
          <mxGeometry x="-460" y="660" width="160" height="50" as="geometry" />
        </mxCell>
        <mxCell id="fcwTPR43N3nKxxFcQhkV-5" value="Description" style="ellipse;whiteSpace=wrap;html=1;" parent="1" vertex="1">
          <mxGeometry x="1360" y="1070" width="160" height="50" as="geometry" />
        </mxCell>
        <mxCell id="5CmYQyaG9mHsX2ngIsFJ-3" value="" style="endArrow=none;html=1;exitX=0;exitY=0;exitDx=0;exitDy=0;entryX=0.931;entryY=0.78;entryDx=0;entryDy=0;entryPerimeter=0;" parent="1" source="5CmYQyaG9mHsX2ngIsFJ-1" target="5CmYQyaG9mHsX2ngIsFJ-2" edge="1">
          <mxGeometry width="50" height="50" relative="1" as="geometry">
            <mxPoint x="-230" y="1030" as="sourcePoint" />
            <mxPoint x="-165" y="985" as="targetPoint" />
          </mxGeometry>
        </mxCell>
        <mxCell id="fcwTPR43N3nKxxFcQhkV-6" value="TotalAmount" style="ellipse;whiteSpace=wrap;html=1;" parent="1" vertex="1">
          <mxGeometry x="1190" y="1050" width="160" height="50" as="geometry" />
        </mxCell>
        <mxCell id="5CmYQyaG9mHsX2ngIsFJ-4" value="&lt;u&gt;RoomID&lt;/u&gt;" style="ellipse;whiteSpace=wrap;html=1;" parent="1" vertex="1">
          <mxGeometry x="-450" y="740" width="160" height="50" as="geometry" />
        </mxCell>
        <mxCell id="fcwTPR43N3nKxxFcQhkV-7" value="EventType" style="ellipse;whiteSpace=wrap;html=1;" parent="1" vertex="1">
          <mxGeometry x="1000" y="1040" width="140" height="50" as="geometry" />
        </mxCell>
        <mxCell id="5CmYQyaG9mHsX2ngIsFJ-5" value="Room_Type" style="ellipse;whiteSpace=wrap;html=1;" parent="1" vertex="1">
          <mxGeometry x="-320" y="610" width="160" height="50" as="geometry" />
        </mxCell>
        <mxCell id="fcwTPR43N3nKxxFcQhkV-8" value="HallType" style="ellipse;whiteSpace=wrap;html=1;" parent="1" vertex="1">
          <mxGeometry x="800" y="900" width="160" height="50" as="geometry" />
        </mxCell>
        <mxCell id="5CmYQyaG9mHsX2ngIsFJ-6" value="" style="endArrow=none;html=1;" parent="1" edge="1">
          <mxGeometry width="50" height="50" relative="1" as="geometry">
            <mxPoint x="-200" y="717" as="sourcePoint" />
            <mxPoint x="-230" y="660" as="targetPoint" />
          </mxGeometry>
        </mxCell>
        <mxCell id="fcwTPR43N3nKxxFcQhkV-9" value="&lt;u&gt;EventID&lt;/u&gt;" style="ellipse;whiteSpace=wrap;html=1;" parent="1" vertex="1">
          <mxGeometry x="950" y="790" width="160" height="50" as="geometry" />
        </mxCell>
        <mxCell id="5CmYQyaG9mHsX2ngIsFJ-7" value="" style="endArrow=none;html=1;" parent="1" source="5CmYQyaG9mHsX2ngIsFJ-1" target="5CmYQyaG9mHsX2ngIsFJ-4" edge="1">
          <mxGeometry width="50" height="50" relative="1" as="geometry">
            <mxPoint x="-100" y="1030" as="sourcePoint" />
            <mxPoint x="-150" y="980" as="targetPoint" />
          </mxGeometry>
        </mxCell>
        <mxCell id="fcwTPR43N3nKxxFcQhkV-10" value="Time" style="ellipse;whiteSpace=wrap;html=1;" parent="1" vertex="1">
          <mxGeometry x="1200" y="765" width="160" height="50" as="geometry" />
        </mxCell>
        <mxCell id="5CmYQyaG9mHsX2ngIsFJ-9" value="" style="endArrow=none;html=1;entryX=1;entryY=0.5;entryDx=0;entryDy=0;" parent="1" target="5CmYQyaG9mHsX2ngIsFJ-10" edge="1">
          <mxGeometry width="50" height="50" relative="1" as="geometry">
            <mxPoint x="-205.00043478260875" y="760" as="sourcePoint" />
            <mxPoint x="-205" y="800" as="targetPoint" />
          </mxGeometry>
        </mxCell>
        <mxCell id="fcwTPR43N3nKxxFcQhkV-11" value="" style="endArrow=none;html=1;rounded=0;entryX=0;entryY=0.5;entryDx=0;entryDy=0;exitX=1;exitY=0.5;exitDx=0;exitDy=0;" parent="1" source="fcwTPR43N3nKxxFcQhkV-3" target="fcwTPR43N3nKxxFcQhkV-4" edge="1">
          <mxGeometry relative="1" as="geometry">
            <mxPoint x="900" y="960" as="sourcePoint" />
            <mxPoint x="1060" y="960" as="targetPoint" />
          </mxGeometry>
        </mxCell>
        <mxCell id="5CmYQyaG9mHsX2ngIsFJ-10" value="Room Manage" style="rhombus;whiteSpace=wrap;html=1;rotation=359;direction=north;strokeWidth=1;" parent="1" vertex="1">
          <mxGeometry x="-240" y="830" width="70" height="70" as="geometry" />
        </mxCell>
        <mxCell id="fcwTPR43N3nKxxFcQhkV-12" value="Date" style="ellipse;whiteSpace=wrap;html=1;" parent="1" vertex="1">
          <mxGeometry x="1300" y="840" width="160" height="50" as="geometry" />
        </mxCell>
        <mxCell id="5CmYQyaG9mHsX2ngIsFJ-12" value="" style="endArrow=none;html=1;exitX=0;exitY=0.5;exitDx=0;exitDy=0;" parent="1" source="5CmYQyaG9mHsX2ngIsFJ-10" edge="1">
          <mxGeometry width="50" height="50" relative="1" as="geometry">
            <mxPoint x="-205.50043478260883" y="940" as="sourcePoint" />
            <mxPoint x="-205" y="960" as="targetPoint" />
            <Array as="points">
              <mxPoint x="-205" y="950" />
            </Array>
          </mxGeometry>
        </mxCell>
        <mxCell id="fcwTPR43N3nKxxFcQhkV-13" value="" style="endArrow=none;html=1;rounded=0;entryX=0.285;entryY=0.952;entryDx=0;entryDy=0;entryPerimeter=0;exitX=1;exitY=0;exitDx=0;exitDy=0;" parent="1" target="fcwTPR43N3nKxxFcQhkV-12" edge="1" source="fcwTPR43N3nKxxFcQhkV-3">
          <mxGeometry relative="1" as="geometry">
            <mxPoint x="1214" y="946" as="sourcePoint" />
            <mxPoint x="1060" y="960" as="targetPoint" />
          </mxGeometry>
        </mxCell>
        <mxCell id="5CmYQyaG9mHsX2ngIsFJ-14" value="Package" style="rounded=0;whiteSpace=wrap;html=1;" parent="1" vertex="1">
          <mxGeometry x="-275" y="955" width="140" height="40" as="geometry" />
        </mxCell>
        <mxCell id="fcwTPR43N3nKxxFcQhkV-15" value="" style="endArrow=none;html=1;rounded=0;exitX=1;exitY=0.75;exitDx=0;exitDy=0;" parent="1" source="fcwTPR43N3nKxxFcQhkV-3" target="fcwTPR43N3nKxxFcQhkV-5" edge="1">
          <mxGeometry relative="1" as="geometry">
            <mxPoint x="1223.62" y="956.4000000000001" as="sourcePoint" />
            <mxPoint x="1300.48" y="891.2" as="targetPoint" />
          </mxGeometry>
        </mxCell>
        <mxCell id="5CmYQyaG9mHsX2ngIsFJ-16" value="&lt;u&gt;PackageID&lt;/u&gt;" style="ellipse;whiteSpace=wrap;html=1;" parent="1" vertex="1">
          <mxGeometry x="-390" y="1050" width="160" height="50" as="geometry" />
        </mxCell>
        <mxCell id="fcwTPR43N3nKxxFcQhkV-16" value="" style="endArrow=none;html=1;rounded=0;exitX=1;exitY=1;exitDx=0;exitDy=0;" parent="1" source="fcwTPR43N3nKxxFcQhkV-3" target="fcwTPR43N3nKxxFcQhkV-6" edge="1">
          <mxGeometry relative="1" as="geometry">
            <mxPoint x="1233.62" y="966.4000000000001" as="sourcePoint" />
            <mxPoint x="1310.48" y="901.2" as="targetPoint" />
          </mxGeometry>
        </mxCell>
        <mxCell id="5CmYQyaG9mHsX2ngIsFJ-17" value="Package_Type" style="ellipse;whiteSpace=wrap;html=1;" parent="1" vertex="1">
          <mxGeometry x="-210" y="1050" width="160" height="50" as="geometry" />
        </mxCell>
        <mxCell id="fcwTPR43N3nKxxFcQhkV-17" value="" style="endArrow=none;html=1;rounded=0;exitX=0.5;exitY=1;exitDx=0;exitDy=0;" parent="1" source="fcwTPR43N3nKxxFcQhkV-3" edge="1">
          <mxGeometry relative="1" as="geometry">
            <mxPoint x="1243.62" y="976.4000000000001" as="sourcePoint" />
            <mxPoint x="1160" y="1090" as="targetPoint" />
          </mxGeometry>
        </mxCell>
        <mxCell id="5CmYQyaG9mHsX2ngIsFJ-20" value="" style="endArrow=none;html=1;exitX=0.25;exitY=1;exitDx=0;exitDy=0;entryX=0.713;entryY=-0.04;entryDx=0;entryDy=0;entryPerimeter=0;" parent="1" source="5CmYQyaG9mHsX2ngIsFJ-14" target="5CmYQyaG9mHsX2ngIsFJ-16" edge="1">
          <mxGeometry width="50" height="50" relative="1" as="geometry">
            <mxPoint x="-320.00043478260886" y="1070" as="sourcePoint" />
            <mxPoint x="-319.5" y="1140" as="targetPoint" />
          </mxGeometry>
        </mxCell>
        <mxCell id="fcwTPR43N3nKxxFcQhkV-21" value="Reserve" style="shape=rhombus;perimeter=rhombusPerimeter;whiteSpace=wrap;html=1;align=center;" parent="1" vertex="1">
          <mxGeometry x="1100" y="1080" width="120" height="60" as="geometry" />
        </mxCell>
        <mxCell id="5CmYQyaG9mHsX2ngIsFJ-22" value="" style="endArrow=none;html=1;exitX=0.607;exitY=1;exitDx=0;exitDy=0;exitPerimeter=0;" parent="1" source="5CmYQyaG9mHsX2ngIsFJ-14" target="5CmYQyaG9mHsX2ngIsFJ-17" edge="1">
          <mxGeometry width="50" height="50" relative="1" as="geometry">
            <mxPoint x="-217.75" y="1100" as="sourcePoint" />
            <mxPoint x="-262.25" y="1140" as="targetPoint" />
          </mxGeometry>
        </mxCell>
        <mxCell id="fcwTPR43N3nKxxFcQhkV-22" value="" style="endArrow=none;html=1;rounded=0;entryX=0.5;entryY=1;entryDx=0;entryDy=0;" parent="1" target="fcwTPR43N3nKxxFcQhkV-21" edge="1">
          <mxGeometry relative="1" as="geometry">
            <mxPoint x="1160" y="1240" as="sourcePoint" />
            <mxPoint x="1170" y="1100" as="targetPoint" />
          </mxGeometry>
        </mxCell>
        <mxCell id="5CmYQyaG9mHsX2ngIsFJ-25" value="" style="endArrow=none;html=1;exitX=1;exitY=0.75;exitDx=0;exitDy=0;entryX=0.5;entryY=1;entryDx=0;entryDy=0;" parent="1" source="5CmYQyaG9mHsX2ngIsFJ-1" target="5CmYQyaG9mHsX2ngIsFJ-23" edge="1">
          <mxGeometry width="50" height="50" relative="1" as="geometry">
            <mxPoint x="-232.04043478260883" y="820" as="sourcePoint" />
            <mxPoint x="-90" y="800" as="targetPoint" />
            <Array as="points" />
          </mxGeometry>
        </mxCell>
        <mxCell id="fcwTPR43N3nKxxFcQhkV-23" value="Hall" style="rounded=0;whiteSpace=wrap;html=1;" parent="1" vertex="1">
          <mxGeometry x="1090" y="1240" width="140" height="40" as="geometry" />
        </mxCell>
        <mxCell id="5CmYQyaG9mHsX2ngIsFJ-27" value="" style="endArrow=none;html=1;exitX=0.5;exitY=0;exitDx=0;exitDy=0;startArrow=none;" parent="1" source="5CmYQyaG9mHsX2ngIsFJ-23" edge="1">
          <mxGeometry width="50" height="50" relative="1" as="geometry">
            <mxPoint x="-20" y="789.5" as="sourcePoint" />
            <mxPoint x="190" y="820" as="targetPoint" />
            <Array as="points" />
          </mxGeometry>
        </mxCell>
        <mxCell id="fcwTPR43N3nKxxFcQhkV-24" value="" style="endArrow=none;html=1;rounded=0;exitX=0.5;exitY=0;exitDx=0;exitDy=0;" parent="1" source="fcwTPR43N3nKxxFcQhkV-7" edge="1">
          <mxGeometry relative="1" as="geometry">
            <mxPoint x="1020" y="1060" as="sourcePoint" />
            <mxPoint x="1110" y="990" as="targetPoint" />
          </mxGeometry>
        </mxCell>
        <mxCell id="5CmYQyaG9mHsX2ngIsFJ-23" value="Reserve" style="rhombus;whiteSpace=wrap;html=1;rotation=10;direction=south;strokeWidth=1;" parent="1" vertex="1">
          <mxGeometry x="-10" y="750" width="70" height="70" as="geometry" />
        </mxCell>
        <mxCell id="fcwTPR43N3nKxxFcQhkV-25" value="EventPrice" style="ellipse;whiteSpace=wrap;html=1;" parent="1" vertex="1">
          <mxGeometry x="860" y="1000" width="160" height="50" as="geometry" />
        </mxCell>
        <mxCell id="5CmYQyaG9mHsX2ngIsFJ-31" style="edgeStyle=orthogonalEdgeStyle;rounded=0;orthogonalLoop=1;jettySize=auto;html=1;exitX=0.5;exitY=1;exitDx=0;exitDy=0;" parent="1" source="5CmYQyaG9mHsX2ngIsFJ-5" target="5CmYQyaG9mHsX2ngIsFJ-5" edge="1">
          <mxGeometry relative="1" as="geometry" />
        </mxCell>
        <mxCell id="fcwTPR43N3nKxxFcQhkV-26" value="" style="endArrow=none;html=1;rounded=0;exitX=0.96;exitY=0.272;exitDx=0;exitDy=0;exitPerimeter=0;entryX=0;entryY=0.75;entryDx=0;entryDy=0;" parent="1" source="fcwTPR43N3nKxxFcQhkV-25" target="fcwTPR43N3nKxxFcQhkV-3" edge="1">
          <mxGeometry relative="1" as="geometry">
            <mxPoint x="1050" y="1050" as="sourcePoint" />
            <mxPoint x="1120" y="1000" as="targetPoint" />
          </mxGeometry>
        </mxCell>
        <mxCell id="5CmYQyaG9mHsX2ngIsFJ-34" value="Staff" style="rounded=0;whiteSpace=wrap;html=1;" parent="1" vertex="1">
          <mxGeometry x="840" y="170" width="110" height="40" as="geometry" />
        </mxCell>
        <mxCell id="fcwTPR43N3nKxxFcQhkV-27" value="" style="endArrow=none;html=1;rounded=0;exitX=0.962;exitY=0.68;exitDx=0;exitDy=0;exitPerimeter=0;entryX=0;entryY=0.25;entryDx=0;entryDy=0;" parent="1" source="fcwTPR43N3nKxxFcQhkV-8" target="fcwTPR43N3nKxxFcQhkV-3" edge="1">
          <mxGeometry relative="1" as="geometry">
            <mxPoint x="1013.5999999999999" y="1003.5999999999999" as="sourcePoint" />
            <mxPoint x="1100" y="990" as="targetPoint" />
          </mxGeometry>
        </mxCell>
        <mxCell id="5CmYQyaG9mHsX2ngIsFJ-35" value="OT_Salary" style="ellipse;whiteSpace=wrap;html=1;" parent="1" vertex="1">
          <mxGeometry x="740" y="65" width="160" height="50" as="geometry" />
        </mxCell>
        <mxCell id="fcwTPR43N3nKxxFcQhkV-29" value="Include" style="shape=rhombus;perimeter=rhombusPerimeter;whiteSpace=wrap;html=1;align=center;" parent="1" vertex="1">
          <mxGeometry x="700" y="940" width="120" height="60" as="geometry" />
        </mxCell>
        <mxCell id="fcwTPR43N3nKxxFcQhkV-30" value="" style="endArrow=none;html=1;rounded=0;entryX=0;entryY=0.5;entryDx=0;entryDy=0;exitX=0.831;exitY=-0.08;exitDx=0;exitDy=0;exitPerimeter=0;" parent="1" source="ywrFgfz7s8btJCYknNwE-57" target="fcwTPR43N3nKxxFcQhkV-29" edge="1">
          <mxGeometry relative="1" as="geometry">
            <mxPoint x="1004" y="924" as="sourcePoint" />
            <mxPoint x="1100" y="970" as="targetPoint" />
          </mxGeometry>
        </mxCell>
        <mxCell id="5CmYQyaG9mHsX2ngIsFJ-36" value="Salary" style="ellipse;whiteSpace=wrap;html=1;" parent="1" vertex="1">
          <mxGeometry x="920" y="60" width="160" height="50" as="geometry" />
        </mxCell>
        <mxCell id="fcwTPR43N3nKxxFcQhkV-31" value="" style="endArrow=none;html=1;rounded=0;exitX=1;exitY=0.5;exitDx=0;exitDy=0;entryX=0;entryY=0.5;entryDx=0;entryDy=0;" parent="1" source="fcwTPR43N3nKxxFcQhkV-29" target="fcwTPR43N3nKxxFcQhkV-3" edge="1">
          <mxGeometry relative="1" as="geometry">
            <mxPoint x="1013.9200000000001" y="934" as="sourcePoint" />
            <mxPoint x="1110" y="980" as="targetPoint" />
          </mxGeometry>
        </mxCell>
        <mxCell id="fcwTPR43N3nKxxFcQhkV-32" value="Book" style="shape=rhombus;perimeter=rhombusPerimeter;whiteSpace=wrap;html=1;align=center;" parent="1" vertex="1">
          <mxGeometry x="740" y="695" width="120" height="60" as="geometry" />
        </mxCell>
        <mxCell id="5CmYQyaG9mHsX2ngIsFJ-37" value="Basic_Salary" style="ellipse;whiteSpace=wrap;html=1;" parent="1" vertex="1">
          <mxGeometry x="1050" y="110" width="160" height="50" as="geometry" />
        </mxCell>
        <mxCell id="fcwTPR43N3nKxxFcQhkV-33" value="" style="endArrow=none;html=1;rounded=0;exitX=0.457;exitY=1.008;exitDx=0;exitDy=0;exitPerimeter=0;entryX=0.111;entryY=-0.07;entryDx=0;entryDy=0;entryPerimeter=0;" parent="1" source="fcwTPR43N3nKxxFcQhkV-9" target="fcwTPR43N3nKxxFcQhkV-3" edge="1">
          <mxGeometry relative="1" as="geometry">
            <mxPoint x="963.9200000000001" y="944" as="sourcePoint" />
            <mxPoint x="1100" y="970" as="targetPoint" />
          </mxGeometry>
        </mxCell>
        <mxCell id="fcwTPR43N3nKxxFcQhkV-34" value="" style="endArrow=none;html=1;rounded=0;exitX=0.5;exitY=1;exitDx=0;exitDy=0;entryX=0;entryY=0;entryDx=0;entryDy=0;" parent="1" source="fcwTPR43N3nKxxFcQhkV-32" target="fcwTPR43N3nKxxFcQhkV-3" edge="1">
          <mxGeometry relative="1" as="geometry">
            <mxPoint x="973.9200000000001" y="954" as="sourcePoint" />
            <mxPoint x="1110" y="980" as="targetPoint" />
          </mxGeometry>
        </mxCell>
        <mxCell id="5CmYQyaG9mHsX2ngIsFJ-38" value="" style="endArrow=none;html=1;entryX=0.306;entryY=0.96;entryDx=0;entryDy=0;entryPerimeter=0;" parent="1" target="5CmYQyaG9mHsX2ngIsFJ-36" edge="1">
          <mxGeometry width="50" height="50" relative="1" as="geometry">
            <mxPoint x="930" y="170" as="sourcePoint" />
            <mxPoint x="961.9400000000003" y="72.98000000000002" as="targetPoint" />
          </mxGeometry>
        </mxCell>
        <mxCell id="fcwTPR43N3nKxxFcQhkV-36" value="" style="endArrow=none;html=1;rounded=0;exitX=1;exitY=0.75;exitDx=0;exitDy=0;entryX=0.5;entryY=0;entryDx=0;entryDy=0;" parent="1" source="ywrFgfz7s8btJCYknNwE-30" target="fcwTPR43N3nKxxFcQhkV-32" edge="1">
          <mxGeometry relative="1" as="geometry">
            <mxPoint x="810" y="520" as="sourcePoint" />
            <mxPoint x="900" y="640" as="targetPoint" />
          </mxGeometry>
        </mxCell>
        <mxCell id="fcwTPR43N3nKxxFcQhkV-37" value="" style="endArrow=none;html=1;rounded=0;exitX=0.386;exitY=0.976;exitDx=0;exitDy=0;exitPerimeter=0;entryX=0.111;entryY=-0.07;entryDx=0;entryDy=0;entryPerimeter=0;" parent="1" source="fcwTPR43N3nKxxFcQhkV-10" edge="1">
          <mxGeometry relative="1" as="geometry">
            <mxPoint x="1100" y="840.0000000000001" as="sourcePoint" />
            <mxPoint x="1182.42" y="946.8000000000001" as="targetPoint" />
          </mxGeometry>
        </mxCell>
        <mxCell id="5CmYQyaG9mHsX2ngIsFJ-39" value="" style="endArrow=none;html=1;entryX=0;entryY=0.5;entryDx=0;entryDy=0;exitX=1;exitY=0.25;exitDx=0;exitDy=0;" parent="1" source="5CmYQyaG9mHsX2ngIsFJ-34" target="5CmYQyaG9mHsX2ngIsFJ-37" edge="1">
          <mxGeometry width="50" height="50" relative="1" as="geometry">
            <mxPoint x="960.0015041582801" y="179.99843284598728" as="sourcePoint" />
            <mxPoint x="1002.0799999999999" y="112" as="targetPoint" />
          </mxGeometry>
        </mxCell>
        <mxCell id="5CmYQyaG9mHsX2ngIsFJ-40" value="" style="endArrow=none;html=1;exitX=0.5;exitY=0;exitDx=0;exitDy=0;" parent="1" source="5CmYQyaG9mHsX2ngIsFJ-34" target="5CmYQyaG9mHsX2ngIsFJ-35" edge="1">
          <mxGeometry width="50" height="50" relative="1" as="geometry">
            <mxPoint x="880.0015041582801" y="179.99843284598728" as="sourcePoint" />
            <mxPoint x="922.0799999999999" y="112" as="targetPoint" />
          </mxGeometry>
        </mxCell>
        <mxCell id="5CmYQyaG9mHsX2ngIsFJ-41" value="&lt;u&gt;Staff_Id&lt;/u&gt;" style="ellipse;whiteSpace=wrap;html=1;" parent="1" vertex="1">
          <mxGeometry x="1040" y="180" width="160" height="50" as="geometry" />
        </mxCell>
        <mxCell id="5CmYQyaG9mHsX2ngIsFJ-42" value="" style="endArrow=none;html=1;entryX=0;entryY=0.5;entryDx=0;entryDy=0;exitX=1;exitY=0.75;exitDx=0;exitDy=0;exitPerimeter=0;" parent="1" source="5CmYQyaG9mHsX2ngIsFJ-34" target="5CmYQyaG9mHsX2ngIsFJ-41" edge="1">
          <mxGeometry width="50" height="50" relative="1" as="geometry">
            <mxPoint x="960" y="190" as="sourcePoint" />
            <mxPoint x="1060" y="155" as="targetPoint" />
          </mxGeometry>
        </mxCell>
        <mxCell id="U7t26g4rNkwfiV-xm9E4-8" value="Include" style="rhombus;whiteSpace=wrap;html=1;rotation=45;" parent="1" vertex="1">
          <mxGeometry x="650" y="1330" width="70" height="70" as="geometry" />
        </mxCell>
        <mxCell id="5CmYQyaG9mHsX2ngIsFJ-43" value="" style="endArrow=none;html=1;exitX=0;exitY=0.5;exitDx=0;exitDy=0;entryX=0.039;entryY=1.002;entryDx=0;entryDy=0;entryPerimeter=0;" parent="1" source="5CmYQyaG9mHsX2ngIsFJ-34" target="ywrFgfz7s8btJCYknNwE-27" edge="1">
          <mxGeometry width="50" height="50" relative="1" as="geometry">
            <mxPoint x="928.0440997064729" y="169.99982392673624" as="sourcePoint" />
            <mxPoint x="630" y="152" as="targetPoint" />
          </mxGeometry>
        </mxCell>
        <mxCell id="U7t26g4rNkwfiV-xm9E4-9" value="" style="endArrow=none;html=1;exitX=0.75;exitY=1;exitDx=0;exitDy=0;entryX=0;entryY=0.5;entryDx=0;entryDy=0;" parent="1" source="ywrFgfz7s8btJCYknNwE-57" target="U7t26g4rNkwfiV-xm9E4-8" edge="1">
          <mxGeometry width="50" height="50" relative="1" as="geometry">
            <mxPoint x="650" y="1290" as="sourcePoint" />
            <mxPoint x="700" y="1240" as="targetPoint" />
          </mxGeometry>
        </mxCell>
        <mxCell id="5CmYQyaG9mHsX2ngIsFJ-44" value="" style="endArrow=none;html=1;exitX=0.118;exitY=-0.025;exitDx=0;exitDy=0;exitPerimeter=0;entryX=0.005;entryY=0.039;entryDx=0;entryDy=0;entryPerimeter=0;" parent="1" source="ywrFgfz7s8btJCYknNwE-30" target="ywrFgfz7s8btJCYknNwE-27" edge="1">
          <mxGeometry width="50" height="50" relative="1" as="geometry">
            <mxPoint x="850" y="200" as="sourcePoint" />
            <mxPoint x="620" y="220" as="targetPoint" />
          </mxGeometry>
        </mxCell>
        <mxCell id="U7t26g4rNkwfiV-xm9E4-10" value="" style="endArrow=none;html=1;exitX=1;exitY=0.5;exitDx=0;exitDy=0;" parent="1" source="U7t26g4rNkwfiV-xm9E4-8" edge="1">
          <mxGeometry width="50" height="50" relative="1" as="geometry">
            <mxPoint x="650" y="1290" as="sourcePoint" />
            <mxPoint x="790" y="1510" as="targetPoint" />
          </mxGeometry>
        </mxCell>
        <mxCell id="U7t26g4rNkwfiV-xm9E4-12" value="Food_Items" style="rounded=0;whiteSpace=wrap;html=1;" parent="1" vertex="1">
          <mxGeometry x="730" y="1510" width="140" height="40" as="geometry" />
        </mxCell>
        <mxCell id="U7t26g4rNkwfiV-xm9E4-13" value="Unit-Price" style="ellipse;whiteSpace=wrap;html=1;" parent="1" vertex="1">
          <mxGeometry x="459.53999999999996" y="1580" width="160" height="50" as="geometry" />
        </mxCell>
        <mxCell id="U7t26g4rNkwfiV-xm9E4-14" value="Iname" style="ellipse;whiteSpace=wrap;html=1;" parent="1" vertex="1">
          <mxGeometry x="570" y="1670" width="160" height="50" as="geometry" />
        </mxCell>
        <mxCell id="U7t26g4rNkwfiV-xm9E4-15" value="&lt;u&gt;FID&lt;/u&gt;" style="ellipse;whiteSpace=wrap;html=1;" parent="1" vertex="1">
          <mxGeometry x="780" y="1690" width="160" height="50" as="geometry" />
        </mxCell>
        <mxCell id="U7t26g4rNkwfiV-xm9E4-16" value="Description" style="ellipse;whiteSpace=wrap;html=1;" parent="1" vertex="1">
          <mxGeometry x="940" y="1600" width="160" height="50" as="geometry" />
        </mxCell>
        <mxCell id="U7t26g4rNkwfiV-xm9E4-17" value="" style="endArrow=none;html=1;exitX=1;exitY=0;exitDx=0;exitDy=0;entryX=0;entryY=0.25;entryDx=0;entryDy=0;" parent="1" source="U7t26g4rNkwfiV-xm9E4-13" target="U7t26g4rNkwfiV-xm9E4-12" edge="1">
          <mxGeometry width="50" height="50" relative="1" as="geometry">
            <mxPoint x="720" y="1460" as="sourcePoint" />
            <mxPoint x="770" y="1410" as="targetPoint" />
          </mxGeometry>
        </mxCell>
        <mxCell id="U7t26g4rNkwfiV-xm9E4-18" value="" style="endArrow=none;html=1;exitX=0.5;exitY=0;exitDx=0;exitDy=0;entryX=0;entryY=1;entryDx=0;entryDy=0;" parent="1" source="U7t26g4rNkwfiV-xm9E4-14" target="U7t26g4rNkwfiV-xm9E4-12" edge="1">
          <mxGeometry width="50" height="50" relative="1" as="geometry">
            <mxPoint x="720" y="1460" as="sourcePoint" />
            <mxPoint x="770" y="1410" as="targetPoint" />
          </mxGeometry>
        </mxCell>
        <mxCell id="U7t26g4rNkwfiV-xm9E4-19" value="" style="endArrow=none;html=1;entryX=0.5;entryY=1;entryDx=0;entryDy=0;" parent="1" source="U7t26g4rNkwfiV-xm9E4-15" target="U7t26g4rNkwfiV-xm9E4-12" edge="1">
          <mxGeometry width="50" height="50" relative="1" as="geometry">
            <mxPoint x="660" y="1680" as="sourcePoint" />
            <mxPoint x="740" y="1560" as="targetPoint" />
          </mxGeometry>
        </mxCell>
        <mxCell id="U7t26g4rNkwfiV-xm9E4-20" value="" style="endArrow=none;html=1;exitX=0.069;exitY=0.14;exitDx=0;exitDy=0;entryX=1;entryY=1;entryDx=0;entryDy=0;exitPerimeter=0;" parent="1" source="U7t26g4rNkwfiV-xm9E4-16" target="U7t26g4rNkwfiV-xm9E4-12" edge="1">
          <mxGeometry width="50" height="50" relative="1" as="geometry">
            <mxPoint x="670" y="1690" as="sourcePoint" />
            <mxPoint x="750" y="1570" as="targetPoint" />
          </mxGeometry>
        </mxCell>
        <mxCell id="U7t26g4rNkwfiV-xm9E4-21" value="M" style="text;html=1;strokeColor=none;fillColor=none;align=center;verticalAlign=middle;whiteSpace=wrap;rounded=0;" parent="1" vertex="1">
          <mxGeometry x="790" y="1480" width="40" height="20" as="geometry" />
        </mxCell>
        <mxCell id="U7t26g4rNkwfiV-xm9E4-22" value="N" style="text;html=1;strokeColor=none;fillColor=none;align=center;verticalAlign=middle;whiteSpace=wrap;rounded=0;" parent="1" vertex="1">
          <mxGeometry x="650" y="1290" width="40" height="20" as="geometry" />
        </mxCell>
        <mxCell id="U7t26g4rNkwfiV-xm9E4-23" value="1" style="text;html=1;strokeColor=none;fillColor=none;align=center;verticalAlign=middle;whiteSpace=wrap;rounded=0;" parent="1" vertex="1">
          <mxGeometry x="445" y="1090" width="40" height="20" as="geometry" />
        </mxCell>
        <mxCell id="U7t26g4rNkwfiV-xm9E4-24" value="N" style="text;html=1;strokeColor=none;fillColor=none;align=center;verticalAlign=middle;whiteSpace=wrap;rounded=0;" parent="1" vertex="1">
          <mxGeometry x="310" y="950" width="40" height="20" as="geometry" />
        </mxCell>
        <mxCell id="U7t26g4rNkwfiV-xm9E4-25" value="M" style="text;html=1;strokeColor=none;fillColor=none;align=center;verticalAlign=middle;whiteSpace=wrap;rounded=0;" parent="1" vertex="1">
          <mxGeometry x="-190" y="915" width="40" height="20" as="geometry" />
        </mxCell>
        <mxCell id="U7t26g4rNkwfiV-xm9E4-26" value="N" style="text;html=1;strokeColor=none;fillColor=none;align=center;verticalAlign=middle;whiteSpace=wrap;rounded=0;" parent="1" vertex="1">
          <mxGeometry x="-200" y="800" width="40" height="20" as="geometry" />
        </mxCell>
        <mxCell id="U7t26g4rNkwfiV-xm9E4-27" value="M" style="text;html=1;strokeColor=none;fillColor=none;align=center;verticalAlign=middle;whiteSpace=wrap;rounded=0;" parent="1" vertex="1">
          <mxGeometry x="-110" y="720" width="40" height="20" as="geometry" />
        </mxCell>
        <mxCell id="U7t26g4rNkwfiV-xm9E4-28" value="1" style="text;html=1;strokeColor=none;fillColor=none;align=center;verticalAlign=middle;whiteSpace=wrap;rounded=0;" parent="1" vertex="1">
          <mxGeometry x="110" y="780" width="40" height="20" as="geometry" />
        </mxCell>
        <mxCell id="U7t26g4rNkwfiV-xm9E4-29" value="M" style="text;html=1;strokeColor=none;fillColor=none;align=center;verticalAlign=middle;whiteSpace=wrap;rounded=0;" parent="1" vertex="1">
          <mxGeometry x="370" y="690" width="40" height="20" as="geometry" />
        </mxCell>
        <mxCell id="U7t26g4rNkwfiV-xm9E4-30" value="1" style="text;html=1;strokeColor=none;fillColor=none;align=center;verticalAlign=middle;whiteSpace=wrap;rounded=0;" parent="1" vertex="1">
          <mxGeometry x="470" y="600" width="40" height="20" as="geometry" />
        </mxCell>
        <mxCell id="zj-U1ahocIxu4iimJIUz-1" value="Transport" style="rounded=0;whiteSpace=wrap;html=1;" vertex="1" parent="1">
          <mxGeometry x="1280" y="360" width="110" height="40" as="geometry" />
        </mxCell>
        <mxCell id="OprPaI7srKi7x_JJK5GI-1" style="edgeStyle=orthogonalEdgeStyle;rounded=0;orthogonalLoop=1;jettySize=auto;html=1;exitX=0.5;exitY=1;exitDx=0;exitDy=0;" edge="1" parent="1" source="fcwTPR43N3nKxxFcQhkV-10" target="fcwTPR43N3nKxxFcQhkV-10">
          <mxGeometry relative="1" as="geometry" />
        </mxCell>
        <mxCell id="zj-U1ahocIxu4iimJIUz-2" value="Facilities" style="ellipse;whiteSpace=wrap;html=1;" vertex="1" parent="1">
          <mxGeometry x="1440" y="420" width="160" height="50" as="geometry" />
        </mxCell>
        <mxCell id="OprPaI7srKi7x_JJK5GI-2" value="" style="endArrow=none;html=1;rounded=0;entryX=1;entryY=0.25;entryDx=0;entryDy=0;exitX=0;exitY=0.5;exitDx=0;exitDy=0;" edge="1" parent="1" source="OprPaI7srKi7x_JJK5GI-3" target="fcwTPR43N3nKxxFcQhkV-3">
          <mxGeometry relative="1" as="geometry">
            <mxPoint x="1650" y="870" as="sourcePoint" />
            <mxPoint x="1192.42" y="956.8" as="targetPoint" />
          </mxGeometry>
        </mxCell>
        <mxCell id="zj-U1ahocIxu4iimJIUz-3" value="Fees" style="ellipse;whiteSpace=wrap;html=1;" vertex="1" parent="1">
          <mxGeometry x="1330" y="240" width="160" height="50" as="geometry" />
        </mxCell>
        <mxCell id="OprPaI7srKi7x_JJK5GI-3" value="Has" style="shape=rhombus;perimeter=rhombusPerimeter;whiteSpace=wrap;html=1;align=center;rotation=-10;" vertex="1" parent="1">
          <mxGeometry x="1650" y="820" width="120" height="60" as="geometry" />
        </mxCell>
        <mxCell id="zj-U1ahocIxu4iimJIUz-4" value="&lt;u&gt;Transport_Id&lt;/u&gt;" style="ellipse;whiteSpace=wrap;html=1;" vertex="1" parent="1">
          <mxGeometry x="1150" y="270" width="160" height="50" as="geometry" />
        </mxCell>
        <mxCell id="OprPaI7srKi7x_JJK5GI-4" value="Payment" style="rounded=0;whiteSpace=wrap;html=1;" vertex="1" parent="1">
          <mxGeometry x="1980" y="730" width="140" height="40" as="geometry" />
        </mxCell>
        <mxCell id="zj-U1ahocIxu4iimJIUz-5" value="" style="endArrow=none;html=1;entryX=0;entryY=0.5;entryDx=0;entryDy=0;exitX=0.655;exitY=1.075;exitDx=0;exitDy=0;exitPerimeter=0;" edge="1" parent="1" source="5CmYQyaG9mHsX2ngIsFJ-34" target="zj-U1ahocIxu4iimJIUz-1">
          <mxGeometry width="50" height="50" relative="1" as="geometry">
            <mxPoint x="960" y="210" as="sourcePoint" />
            <mxPoint x="1050" y="215" as="targetPoint" />
          </mxGeometry>
        </mxCell>
        <mxCell id="OprPaI7srKi7x_JJK5GI-5" value="" style="endArrow=none;html=1;rounded=0;entryX=0.93;entryY=0.392;entryDx=0;entryDy=0;entryPerimeter=0;" edge="1" parent="1" target="OprPaI7srKi7x_JJK5GI-3">
          <mxGeometry relative="1" as="geometry">
            <mxPoint x="1980" y="760" as="sourcePoint" />
            <mxPoint x="1770" y="840" as="targetPoint" />
          </mxGeometry>
        </mxCell>
        <mxCell id="zj-U1ahocIxu4iimJIUz-6" value="Vehicle_Type" style="ellipse;whiteSpace=wrap;html=1;" vertex="1" parent="1">
          <mxGeometry x="1290" y="460" width="160" height="50" as="geometry" />
        </mxCell>
        <mxCell id="OprPaI7srKi7x_JJK5GI-6" value="" style="endArrow=none;html=1;rounded=0;entryX=1;entryY=0.5;entryDx=0;entryDy=0;exitX=0;exitY=1;exitDx=0;exitDy=0;" edge="1" parent="1" source="OprPaI7srKi7x_JJK5GI-4" target="OprPaI7srKi7x_JJK5GI-3">
          <mxGeometry relative="1" as="geometry">
            <mxPoint x="1990" y="780" as="sourcePoint" />
            <mxPoint x="1769" y="850" as="targetPoint" />
          </mxGeometry>
        </mxCell>
        <mxCell id="zj-U1ahocIxu4iimJIUz-7" value="pDetails" style="ellipse;whiteSpace=wrap;html=1;" vertex="1" parent="1">
          <mxGeometry x="1050" y="370" width="160" height="50" as="geometry" />
        </mxCell>
        <mxCell id="OprPaI7srKi7x_JJK5GI-7" value="Type" style="ellipse;whiteSpace=wrap;html=1;" vertex="1" parent="1">
          <mxGeometry x="1710" y="730" width="160" height="50" as="geometry" />
        </mxCell>
        <mxCell id="zj-U1ahocIxu4iimJIUz-9" value="" style="endArrow=none;html=1;entryX=0.364;entryY=0;entryDx=0;entryDy=0;exitX=1;exitY=0.75;exitDx=0;exitDy=0;exitPerimeter=0;entryPerimeter=0;" edge="1" parent="1" target="zj-U1ahocIxu4iimJIUz-1">
          <mxGeometry width="50" height="50" relative="1" as="geometry">
            <mxPoint x="1260" y="320" as="sourcePoint" />
            <mxPoint x="1350" y="325" as="targetPoint" />
          </mxGeometry>
        </mxCell>
        <mxCell id="OprPaI7srKi7x_JJK5GI-8" value="Date &amp;amp; Time" style="ellipse;whiteSpace=wrap;html=1;" vertex="1" parent="1">
          <mxGeometry x="2160" y="810" width="160" height="50" as="geometry" />
        </mxCell>
        <mxCell id="zj-U1ahocIxu4iimJIUz-10" value="" style="endArrow=none;html=1;entryX=0.75;entryY=0;entryDx=0;entryDy=0;exitX=1;exitY=0.75;exitDx=0;exitDy=0;exitPerimeter=0;" edge="1" parent="1" target="zj-U1ahocIxu4iimJIUz-1">
          <mxGeometry width="50" height="50" relative="1" as="geometry">
            <mxPoint x="1379.98" y="290" as="sourcePoint" />
            <mxPoint x="1440.02" y="330" as="targetPoint" />
          </mxGeometry>
        </mxCell>
        <mxCell id="OprPaI7srKi7x_JJK5GI-9" value="Amount" style="ellipse;whiteSpace=wrap;html=1;" vertex="1" parent="1">
          <mxGeometry x="2030" y="885" width="160" height="50" as="geometry" />
        </mxCell>
        <mxCell id="zj-U1ahocIxu4iimJIUz-11" value="" style="endArrow=none;html=1;entryX=1;entryY=1;entryDx=0;entryDy=0;exitX=0.038;exitY=0.34;exitDx=0;exitDy=0;exitPerimeter=0;" edge="1" parent="1" source="zj-U1ahocIxu4iimJIUz-2" target="zj-U1ahocIxu4iimJIUz-1">
          <mxGeometry width="50" height="50" relative="1" as="geometry">
            <mxPoint x="1407.4799999999996" y="310" as="sourcePoint" />
            <mxPoint x="1390" y="380" as="targetPoint" />
          </mxGeometry>
        </mxCell>
        <mxCell id="OprPaI7srKi7x_JJK5GI-10" value="Id" style="ellipse;whiteSpace=wrap;html=1;" vertex="1" parent="1">
          <mxGeometry x="1840" y="850" width="160" height="50" as="geometry" />
        </mxCell>
        <mxCell id="zj-U1ahocIxu4iimJIUz-12" value="" style="endArrow=none;html=1;exitX=0.294;exitY=0.04;exitDx=0;exitDy=0;exitPerimeter=0;" edge="1" parent="1" source="zj-U1ahocIxu4iimJIUz-6" target="zj-U1ahocIxu4iimJIUz-1">
          <mxGeometry width="50" height="50" relative="1" as="geometry">
            <mxPoint x="1460" y="430" as="sourcePoint" />
            <mxPoint x="1400" y="390" as="targetPoint" />
          </mxGeometry>
        </mxCell>
        <mxCell id="OprPaI7srKi7x_JJK5GI-12" value="" style="endArrow=none;html=1;rounded=0;exitX=0;exitY=0.5;exitDx=0;exitDy=0;" edge="1" parent="1" source="OprPaI7srKi7x_JJK5GI-4">
          <mxGeometry relative="1" as="geometry">
            <mxPoint x="2070.911534819267" y="705.2088906600156" as="sourcePoint" />
            <mxPoint x="1870" y="750" as="targetPoint" />
          </mxGeometry>
        </mxCell>
        <mxCell id="zj-U1ahocIxu4iimJIUz-14" value="" style="endArrow=none;html=1;entryX=0.655;entryY=1.075;entryDx=0;entryDy=0;entryPerimeter=0;" edge="1" parent="1" source="zj-U1ahocIxu4iimJIUz-7">
          <mxGeometry width="50" height="50" relative="1" as="geometry">
            <mxPoint x="1327.95" y="444" as="sourcePoint" />
            <mxPoint x="1280.0000000000002" y="390" as="targetPoint" />
          </mxGeometry>
        </mxCell>
        <mxCell id="OprPaI7srKi7x_JJK5GI-14" value="" style="endArrow=none;html=1;rounded=0;exitX=0.117;exitY=0.992;exitDx=0;exitDy=0;entryX=0.571;entryY=0.027;entryDx=0;entryDy=0;entryPerimeter=0;exitPerimeter=0;" edge="1" parent="1" source="OprPaI7srKi7x_JJK5GI-4" target="OprPaI7srKi7x_JJK5GI-10">
          <mxGeometry relative="1" as="geometry">
            <mxPoint x="1990" y="760" as="sourcePoint" />
            <mxPoint x="1880" y="760" as="targetPoint" />
          </mxGeometry>
        </mxCell>
        <mxCell id="zj-U1ahocIxu4iimJIUz-15" value="" style="endArrow=none;html=1;exitX=0.655;exitY=1.075;exitDx=0;exitDy=0;exitPerimeter=0;" edge="1" parent="1">
          <mxGeometry width="50" height="50" relative="1" as="geometry">
            <mxPoint x="1390.0000000000002" y="380" as="sourcePoint" />
            <mxPoint x="1560" y="380" as="targetPoint" />
          </mxGeometry>
        </mxCell>
        <mxCell id="OprPaI7srKi7x_JJK5GI-15" value="" style="endArrow=none;html=1;rounded=0;exitX=0.5;exitY=1;exitDx=0;exitDy=0;entryX=0.363;entryY=0.06;entryDx=0;entryDy=0;entryPerimeter=0;" edge="1" parent="1" source="OprPaI7srKi7x_JJK5GI-4" target="OprPaI7srKi7x_JJK5GI-9">
          <mxGeometry relative="1" as="geometry">
            <mxPoint x="2000" y="770" as="sourcePoint" />
            <mxPoint x="1890" y="770" as="targetPoint" />
          </mxGeometry>
        </mxCell>
        <mxCell id="zj-U1ahocIxu4iimJIUz-16" value="Manage" style="rhombus;whiteSpace=wrap;html=1;rotation=359;direction=south;" vertex="1" parent="1">
          <mxGeometry x="1560" y="345" width="70" height="70" as="geometry" />
        </mxCell>
        <mxCell id="OprPaI7srKi7x_JJK5GI-16" value="" style="endArrow=none;html=1;rounded=0;entryX=1;entryY=1;entryDx=0;entryDy=0;" edge="1" parent="1" source="OprPaI7srKi7x_JJK5GI-8" target="OprPaI7srKi7x_JJK5GI-4">
          <mxGeometry relative="1" as="geometry">
            <mxPoint x="2010" y="780" as="sourcePoint" />
            <mxPoint x="1900" y="780" as="targetPoint" />
          </mxGeometry>
        </mxCell>
        <mxCell id="zj-U1ahocIxu4iimJIUz-17" value="" style="endArrow=none;html=1;exitX=0.655;exitY=1.075;exitDx=0;exitDy=0;exitPerimeter=0;" edge="1" parent="1">
          <mxGeometry width="50" height="50" relative="1" as="geometry">
            <mxPoint x="1630" y="379.5" as="sourcePoint" />
            <mxPoint x="1800" y="379.5" as="targetPoint" />
          </mxGeometry>
        </mxCell>
        <mxCell id="OprPaI7srKi7x_JJK5GI-18" value="1" style="text;html=1;strokeColor=none;fillColor=none;align=center;verticalAlign=middle;whiteSpace=wrap;rounded=0;" vertex="1" parent="1">
          <mxGeometry x="720" y="670" width="40" height="20" as="geometry" />
        </mxCell>
        <mxCell id="zj-U1ahocIxu4iimJIUz-18" value="Drivers" style="rounded=0;whiteSpace=wrap;html=1;" vertex="1" parent="1">
          <mxGeometry x="1800" y="360" width="110" height="40" as="geometry" />
        </mxCell>
        <mxCell id="OprPaI7srKi7x_JJK5GI-19" value="N" style="text;html=1;strokeColor=none;fillColor=none;align=center;verticalAlign=middle;whiteSpace=wrap;rounded=0;" vertex="1" parent="1">
          <mxGeometry x="790" y="780" width="40" height="20" as="geometry" />
        </mxCell>
        <mxCell id="zj-U1ahocIxu4iimJIUz-19" value="&lt;u&gt;Driver_Id&lt;/u&gt;" style="ellipse;whiteSpace=wrap;html=1;" vertex="1" parent="1">
          <mxGeometry x="1700" y="280" width="160" height="50" as="geometry" />
        </mxCell>
        <mxCell id="OprPaI7srKi7x_JJK5GI-20" value="" style="endArrow=none;html=1;exitX=1;exitY=0;exitDx=0;exitDy=0;" edge="1" parent="1" source="ywrFgfz7s8btJCYknNwE-37">
          <mxGeometry width="50" height="50" relative="1" as="geometry">
            <mxPoint x="305" y="830" as="sourcePoint" />
            <mxPoint x="860" y="510" as="targetPoint" />
          </mxGeometry>
        </mxCell>
        <mxCell id="zj-U1ahocIxu4iimJIUz-20" value="Email" style="ellipse;whiteSpace=wrap;html=1;" vertex="1" parent="1">
          <mxGeometry x="1690" y="447.5" width="160" height="50" as="geometry" />
        </mxCell>
        <mxCell id="OprPaI7srKi7x_JJK5GI-21" value="Has" style="rhombus;whiteSpace=wrap;html=1;direction=south;rotation=60;" vertex="1" parent="1">
          <mxGeometry x="860" y="460" width="60" height="70" as="geometry" />
        </mxCell>
        <mxCell id="zj-U1ahocIxu4iimJIUz-21" value="" style="ellipse;whiteSpace=wrap;html=1;" vertex="1" parent="1">
          <mxGeometry x="1890" y="440" width="160" height="50" as="geometry" />
        </mxCell>
        <mxCell id="OprPaI7srKi7x_JJK5GI-22" value="1" style="text;html=1;strokeColor=none;fillColor=none;align=center;verticalAlign=middle;whiteSpace=wrap;rounded=0;" vertex="1" parent="1">
          <mxGeometry x="800" y="485" width="40" height="20" as="geometry" />
        </mxCell>
        <mxCell id="zj-U1ahocIxu4iimJIUz-22" value="Mobile" style="ellipse;whiteSpace=wrap;html=1;" vertex="1" parent="1">
          <mxGeometry x="1900" y="447.5" width="140" height="35" as="geometry" />
        </mxCell>
        <mxCell id="OprPaI7srKi7x_JJK5GI-23" value="" style="endArrow=none;html=1;exitX=0;exitY=0.5;exitDx=0;exitDy=0;entryX=0;entryY=0;entryDx=0;entryDy=0;" edge="1" parent="1" source="OprPaI7srKi7x_JJK5GI-21" target="OprPaI7srKi7x_JJK5GI-4">
          <mxGeometry width="50" height="50" relative="1" as="geometry">
            <mxPoint x="340" y="830" as="sourcePoint" />
            <mxPoint x="1170" y="510" as="targetPoint" />
          </mxGeometry>
        </mxCell>
        <mxCell id="zj-U1ahocIxu4iimJIUz-23" value="" style="endArrow=none;html=1;entryX=1;entryY=1;entryDx=0;entryDy=0;exitX=0.25;exitY=0;exitDx=0;exitDy=0;exitPerimeter=0;" edge="1" parent="1" source="zj-U1ahocIxu4iimJIUz-21">
          <mxGeometry width="50" height="50" relative="1" as="geometry">
            <mxPoint x="1926.08" y="437" as="sourcePoint" />
            <mxPoint x="1870" y="400" as="targetPoint" />
          </mxGeometry>
        </mxCell>
        <mxCell id="OprPaI7srKi7x_JJK5GI-24" value="1" style="text;html=1;strokeColor=none;fillColor=none;align=center;verticalAlign=middle;whiteSpace=wrap;rounded=0;" vertex="1" parent="1">
          <mxGeometry x="950" y="450" width="40" height="20" as="geometry" />
        </mxCell>
        <mxCell id="zj-U1ahocIxu4iimJIUz-24" value="" style="endArrow=none;html=1;entryX=0.2;entryY=1.05;entryDx=0;entryDy=0;exitX=0.669;exitY=0.01;exitDx=0;exitDy=0;exitPerimeter=0;entryPerimeter=0;" edge="1" parent="1" source="zj-U1ahocIxu4iimJIUz-20" target="zj-U1ahocIxu4iimJIUz-18">
          <mxGeometry width="50" height="50" relative="1" as="geometry">
            <mxPoint x="1940" y="450" as="sourcePoint" />
            <mxPoint x="1880" y="410" as="targetPoint" />
          </mxGeometry>
        </mxCell>
        <mxCell id="OprPaI7srKi7x_JJK5GI-25" value="" style="endArrow=none;html=1;exitX=0.5;exitY=1;exitDx=0;exitDy=0;entryX=0.5;entryY=1;entryDx=0;entryDy=0;" edge="1" parent="1" source="5CmYQyaG9mHsX2ngIsFJ-34" target="OprPaI7srKi7x_JJK5GI-26">
          <mxGeometry width="50" height="50" relative="1" as="geometry">
            <mxPoint x="340" y="830" as="sourcePoint" />
            <mxPoint x="1040" y="550" as="targetPoint" />
          </mxGeometry>
        </mxCell>
        <mxCell id="zj-U1ahocIxu4iimJIUz-25" value="" style="endArrow=none;html=1;entryX=0.2;entryY=1.05;entryDx=0;entryDy=0;exitX=0.445;exitY=0;exitDx=0;exitDy=0;exitPerimeter=0;entryPerimeter=0;" edge="1" parent="1" source="zj-U1ahocIxu4iimJIUz-18">
          <mxGeometry width="50" height="50" relative="1" as="geometry">
            <mxPoint x="1775.04" y="376" as="sourcePoint" />
            <mxPoint x="1800" y="330" as="targetPoint" />
          </mxGeometry>
        </mxCell>
        <mxCell id="OprPaI7srKi7x_JJK5GI-26" value="works In" style="rhombus;whiteSpace=wrap;html=1;direction=south;rotation=60;" vertex="1" parent="1">
          <mxGeometry x="1022.5" y="552.99" width="90" height="70" as="geometry" />
        </mxCell>
        <mxCell id="zj-U1ahocIxu4iimJIUz-26" value="Name" style="ellipse;whiteSpace=wrap;html=1;" vertex="1" parent="1">
          <mxGeometry x="1970" y="350" width="160" height="50" as="geometry" />
        </mxCell>
        <mxCell id="OprPaI7srKi7x_JJK5GI-27" value="" style="endArrow=none;html=1;exitX=0.5;exitY=0;exitDx=0;exitDy=0;entryX=0.5;entryY=0;entryDx=0;entryDy=0;" edge="1" parent="1" source="OprPaI7srKi7x_JJK5GI-26" target="fcwTPR43N3nKxxFcQhkV-3">
          <mxGeometry width="50" height="50" relative="1" as="geometry">
            <mxPoint x="905" y="219.9999999999999" as="sourcePoint" />
            <mxPoint x="1055" y="559.0192378864667" as="targetPoint" />
          </mxGeometry>
        </mxCell>
        <mxCell id="zj-U1ahocIxu4iimJIUz-27" value="" style="endArrow=none;html=1;entryX=0;entryY=0.5;entryDx=0;entryDy=0;exitX=1;exitY=0.5;exitDx=0;exitDy=0;" edge="1" parent="1" source="zj-U1ahocIxu4iimJIUz-18" target="zj-U1ahocIxu4iimJIUz-26">
          <mxGeometry width="50" height="50" relative="1" as="geometry">
            <mxPoint x="1910" y="388" as="sourcePoint" />
            <mxPoint x="1934.96" y="342" as="targetPoint" />
          </mxGeometry>
        </mxCell>
        <mxCell id="OprPaI7srKi7x_JJK5GI-28" value="N" style="text;html=1;strokeColor=none;fillColor=none;align=center;verticalAlign=middle;whiteSpace=wrap;rounded=0;" vertex="1" parent="1">
          <mxGeometry x="1040" y="470" width="40" height="20" as="geometry" />
        </mxCell>
        <mxCell id="zj-U1ahocIxu4iimJIUz-28" value="" style="endArrow=none;html=1;entryX=1;entryY=1;entryDx=0;entryDy=0;" edge="1" parent="1">
          <mxGeometry width="50" height="50" relative="1" as="geometry">
            <mxPoint x="2170" y="310" as="sourcePoint" />
            <mxPoint x="2100" y="355" as="targetPoint" />
          </mxGeometry>
        </mxCell>
        <mxCell id="OprPaI7srKi7x_JJK5GI-29" value="1" style="text;html=1;strokeColor=none;fillColor=none;align=center;verticalAlign=middle;whiteSpace=wrap;rounded=0;" vertex="1" parent="1">
          <mxGeometry x="1100" y="620" width="40" height="20" as="geometry" />
        </mxCell>
        <mxCell id="zj-U1ahocIxu4iimJIUz-29" value="" style="endArrow=none;html=1;entryX=0.981;entryY=0.68;entryDx=0;entryDy=0;entryPerimeter=0;" edge="1" parent="1" target="zj-U1ahocIxu4iimJIUz-26">
          <mxGeometry width="50" height="50" relative="1" as="geometry">
            <mxPoint x="2190" y="400" as="sourcePoint" />
            <mxPoint x="2110" y="365" as="targetPoint" />
          </mxGeometry>
        </mxCell>
        <mxCell id="zj-U1ahocIxu4iimJIUz-30" value="First_Name" style="ellipse;whiteSpace=wrap;html=1;" vertex="1" parent="1">
          <mxGeometry x="2160" y="280" width="130" height="50" as="geometry" />
        </mxCell>
        <mxCell id="zj-U1ahocIxu4iimJIUz-31" value="Last_Name" style="ellipse;whiteSpace=wrap;html=1;" vertex="1" parent="1">
          <mxGeometry x="2190" y="380" width="120" height="50" as="geometry" />
        </mxCell>
        <mxCell id="zj-U1ahocIxu4iimJIUz-32" value="&lt;b&gt;M&lt;/b&gt;" style="text;html=1;align=center;verticalAlign=middle;resizable=0;points=[];autosize=1;strokeColor=none;" vertex="1" parent="1">
          <mxGeometry x="1465" y="360" width="30" height="20" as="geometry" />
        </mxCell>
        <mxCell id="zj-U1ahocIxu4iimJIUz-33" value="&lt;b&gt;N&lt;/b&gt;" style="text;html=1;align=center;verticalAlign=middle;resizable=0;points=[];autosize=1;strokeColor=none;" vertex="1" parent="1">
          <mxGeometry x="1720" y="360" width="20" height="20" as="geometry" />
        </mxCell>
      </root>
    </mxGraphModel>
  </diagram>
</mxfile>
